# xmcd CD database file
# Copyright (C) 1997 Ti Kan
# 
# Track frame offsets:
#     182
#     29495
#     53777
#     75505
#     96180
#     113990
#     141117
#     162002
#     181215
#     198277
# 
# Disc length: 2923 seconds
# 
# Revision: 1
# Processed by: cddbd v1.4b41PL1 Copyright (c) Steve Scherf et al.
# Submitted via: DiscPlay 4.0.2
# 
DISCID=7b0b690a
DTITLE=Bobby Womack - Save The Children
DYEAR=1900
DGENRE=
TTITLE0=Save The Children
TTITLE1=Priorities
TTITLE2=Too Close For Comfort
TTITLE3=Baby I'm Back
TTITLE4=She's My Girl
TTITLE5=Free Love
TTITLE6=How Can It Be
TTITLE7=Tough Job
TTITLE8=Now We're Together
TTITLE9=Better Love (Everybody's Looking For A Better Love)
EXTD=
EXTT0=
EXTT1=
EXTT2=
EXTT3=
EXTT4=
EXTT5=
EXTT6=
EXTT7=
EXTT8=
EXTT9=
PLAYORDER=
